<svg width="90" height="90" viewBox="0 0 267 143" fill="none" xmlns="http://www.w3.org/2000/svg">
<path d="M32.304 32.636C30.68 31.7467 29.0173 31.012 27.316 30.432C25.6533 29.852 24.0873 29.562 22.618 29.562C20.8007 29.562 19.37 29.9293 18.326 30.664C17.282 31.3987 16.76 32.5007 16.76 33.97C16.76 34.9753 17.1467 35.884 17.92 36.696C18.732 37.4693 19.7567 38.1653 20.994 38.784C22.27 39.4027 23.5847 39.9633 24.938 40.466C26.6007 41.0847 28.2053 41.8773 29.752 42.844C31.2987 43.772 32.5747 45.0673 33.58 46.73C34.5853 48.354 35.088 50.5193 35.088 53.226C35.088 55.3913 34.5273 57.402 33.406 59.258C32.2847 61.114 30.6413 62.622 28.476 63.782C26.3107 64.9033 23.6427 65.464 20.472 65.464C18.036 65.464 15.542 65.0967 12.99 64.362C10.4767 63.6273 8.09867 62.4673 5.856 60.882L9.568 54.328C11.0373 55.4107 12.7193 56.3 14.614 56.996C16.5087 57.692 18.21 58.04 19.718 58.04C20.7233 58.04 21.7287 57.9047 22.734 57.634C23.778 57.3247 24.6287 56.822 25.286 56.126C25.982 55.43 26.33 54.4633 26.33 53.226C26.33 51.95 25.7113 50.848 24.474 49.92C23.2753 48.9533 21.8253 48.1413 20.124 47.484C18.8093 46.9813 17.456 46.4013 16.064 45.744C14.672 45.0867 13.3573 44.294 12.12 43.366C10.9213 42.3993 9.93533 41.22 9.162 39.828C8.42733 38.3973 8.06 36.6573 8.06 34.608C8.06 32.1333 8.60133 29.9873 9.684 28.17C10.8053 26.3527 12.3713 24.922 14.382 23.878C16.3927 22.7953 18.7127 22.196 21.342 22.08C24.7833 22.08 27.5673 22.486 29.694 23.298C31.8593 24.11 33.7927 25.0767 35.494 26.198L32.304 32.636ZM40.1345 43.714C40.1345 40.7753 40.6951 37.9913 41.8165 35.362C42.9378 32.7327 44.4845 30.4127 46.4565 28.402C48.4671 26.3527 50.7871 24.748 53.4165 23.588C56.0458 22.428 58.8685 21.848 61.8845 21.848C64.8618 21.848 67.6651 22.428 70.2945 23.588C72.9238 24.748 75.2438 26.3527 77.2545 28.402C79.3038 30.4127 80.8891 32.7327 82.0105 35.362C83.1705 37.9913 83.7505 40.7753 83.7505 43.714C83.7505 46.73 83.1705 49.5527 82.0105 52.182C80.8891 54.8113 79.3038 57.1313 77.2545 59.142C75.2438 61.114 72.9238 62.6607 70.2945 63.782C67.6651 64.9033 64.8618 65.464 61.8845 65.464C58.8685 65.464 56.0458 64.9033 53.4165 63.782C50.7871 62.6607 48.4671 61.114 46.4565 59.142C44.4845 57.1313 42.9378 54.8113 41.8165 52.182C40.6951 49.5527 40.1345 46.73 40.1345 43.714ZM48.8345 43.714C48.8345 46.2273 49.4145 48.528 50.5745 50.616C51.7731 52.6653 53.3778 54.3087 55.3885 55.546C57.3991 56.7447 59.6611 57.344 62.1745 57.344C64.6105 57.344 66.7951 56.7447 68.7285 55.546C70.7005 54.3087 72.2471 52.6653 73.3685 50.616C74.4898 48.528 75.0505 46.2273 75.0505 43.714C75.0505 41.1233 74.4705 38.8033 73.3105 36.754C72.1505 34.666 70.5845 33.0227 68.6125 31.824C66.6405 30.5867 64.4171 29.968 61.9425 29.968C59.4678 29.968 57.2445 30.5867 55.2725 31.824C53.3005 33.0227 51.7345 34.666 50.5745 36.754C49.4145 38.8033 48.8345 41.1233 48.8345 43.714ZM129.777 66.74L99.9071 39.77L100.081 65H91.5551V20.63H91.9031L121.715 48.006L121.541 22.312H130.009V66.74H129.777ZM140.422 22.312H148.832V65H140.422V22.312ZM154.456 65L173.712 20.63H174.176L193.432 65H183.688L180.382 56.648H166.23L162.75 65H154.456ZM169.188 49.572H177.598L173.48 39.19L169.188 49.572Z" fill="#FFA5C0"/>
<path d="M0.72 119L20.64 73.1H21.12L41.04 119H30.96L27.54 110.36H12.9L9.3 119H0.72ZM15.96 103.04H24.66L20.4 92.3L15.96 103.04ZM45.0773 119V73.04H45.1373L67.5173 104.78L90.4373 73.04H90.5573V119H81.8573V97.94L67.4573 118.4H67.3373L53.4773 99.26V119H45.0773ZM96.8719 96.98C96.8719 93.94 97.4519 91.06 98.6119 88.34C99.7719 85.62 101.372 83.22 103.412 81.14C105.492 79.02 107.892 77.36 110.612 76.16C113.332 74.96 116.252 74.36 119.372 74.36C122.452 74.36 125.352 74.96 128.072 76.16C130.792 77.36 133.192 79.02 135.272 81.14C137.392 83.22 139.032 85.62 140.192 88.34C141.392 91.06 141.992 93.94 141.992 96.98C141.992 100.1 141.392 103.02 140.192 105.74C139.032 108.46 137.392 110.86 135.272 112.94C133.192 114.98 130.792 116.58 128.072 117.74C125.352 118.9 122.452 119.48 119.372 119.48C116.252 119.48 113.332 118.9 110.612 117.74C107.892 116.58 105.492 114.98 103.412 112.94C101.372 110.86 99.7719 108.46 98.6119 105.74C97.4519 103.02 96.8719 100.1 96.8719 96.98ZM105.872 96.98C105.872 99.58 106.472 101.96 107.672 104.12C108.912 106.24 110.572 107.94 112.652 109.22C114.732 110.46 117.072 111.08 119.672 111.08C122.192 111.08 124.452 110.46 126.452 109.22C128.492 107.94 130.092 106.24 131.252 104.12C132.412 101.96 132.992 99.58 132.992 96.98C132.992 94.3 132.392 91.9 131.192 89.78C129.992 87.62 128.372 85.92 126.332 84.68C124.292 83.4 121.992 82.76 119.432 82.76C116.872 82.76 114.572 83.4 112.532 84.68C110.492 85.92 108.872 87.62 107.672 89.78C106.472 91.9 105.872 94.3 105.872 96.98ZM156.066 102.68C156.066 104.08 156.486 105.42 157.326 106.7C158.166 107.98 159.266 109.02 160.626 109.82C162.026 110.62 163.546 111.02 165.186 111.02C166.986 111.02 168.586 110.62 169.986 109.82C171.386 109.02 172.486 107.98 173.286 106.7C174.126 105.42 174.546 104.08 174.546 102.68V74.84H183.126V102.86C183.126 106.1 182.326 108.98 180.726 111.5C179.126 113.98 176.966 115.94 174.246 117.38C171.526 118.78 168.506 119.48 165.186 119.48C161.906 119.48 158.906 118.78 156.186 117.38C153.506 115.94 151.366 113.98 149.766 111.5C148.166 108.98 147.366 106.1 147.366 102.86V74.84H156.066V102.68ZM204.597 74.84C210.157 74.84 214.417 76.2 217.377 78.92C220.377 81.6 221.877 85.2 221.877 89.72C221.877 92.24 221.337 94.72 220.257 97.16C219.217 99.6 217.437 101.54 214.917 102.98L225.177 119H215.037L205.737 104.96H199.917V119H191.217V74.84H204.597ZM206.097 96.56C207.857 96.56 209.217 96.2 210.177 95.48C211.177 94.72 211.877 93.84 212.277 92.84C212.677 91.8 212.877 90.86 212.877 90.02C212.877 89.54 212.797 88.94 212.637 88.22C212.517 87.46 212.237 86.7 211.797 85.94C211.357 85.18 210.677 84.54 209.757 84.02C208.877 83.5 207.677 83.24 206.157 83.24H199.917V96.56H206.097ZM224.97 119L244.89 73.1H245.37L265.29 119H255.21L251.79 110.36H237.15L233.55 119H224.97ZM240.21 103.04H248.91L244.65 92.3L240.21 103.04Z" fill="#FECEB3"/>
<path d="M235.569 44.0842C229.925 43.5404 225.46 39.0769 224.916 33.4381L224 23.9167L223.084 33.4381C222.54 39.0778 218.075 43.5414 212.431 44.0842L202.917 45L212.431 45.9158C218.075 46.4595 222.54 50.9231 223.084 56.5619L224 66.0833L224.916 56.5619C225.46 50.9221 229.925 46.4586 235.569 45.9158L245.083 45L235.569 44.0842Z" fill="url(#paint0_radial_4_74)"/>
<defs>
<radialGradient id="paint0_radial_4_74" cx="0" cy="0" r="1" gradientUnits="userSpaceOnUse" gradientTransform="translate(224 45) rotate(90) scale(21.0833)">
<stop stop-color="#FFA5C0"/>
<stop offset="1" stop-color="#FECEB3"/>
</radialGradient>
</defs>
</svg>
